<?xml version="1.0" encoding="utf-8"?>
<!-- Generator: Adobe Illustrator 21.1.0, SVG Export Plug-In . SVG Version: 6.00 Build 0)  -->
<svg version="1.1" id="Capa_1" xmlns="http://www.w3.org/2000/svg" xmlns:xlink="http://www.w3.org/1999/xlink" x="0px" y="0px"
	 viewBox="0 0 512 512" style="enable-background:new 0 0 512 512;" xml:space="preserve">
<style type="text/css">
	.st0{fill:#BA9389;}
</style>
<g>
	<g>
		<path class="st0" d="M461,276.2L461,276.2c-1.9,0-3.4,1.5-3.4,3.4s1.5,3.4,3.4,3.4c1.9,0,3.4-1.5,3.4-3.4
			C464.4,277.7,462.9,276.2,461,276.2z"/>
	</g>
</g>
<g>
	<g>
		<path class="st0" d="M138.5,41L138.5,41c-1.9,0-3.4,1.5-3.4,3.4c0,1.9,1.5,3.4,3.4,3.4c1.9,0,3.4-1.5,3.4-3.4
			C141.9,42.5,140.4,41,138.5,41z"/>
	</g>
</g>
<g>
	<g>
		<path class="st0" d="M219.1,74.6L219.1,74.6c-1.9,0-3.4,1.5-3.4,3.4c0,1.9,1.5,3.4,3.4,3.4c1.9,0,3.4-1.5,3.4-3.4
			C222.5,76.1,221,74.6,219.1,74.6z"/>
	</g>
</g>
<g>
	<g>
		<path class="st0" d="M118.4,128.3L118.4,128.3c-1.9,0-3.4,1.5-3.4,3.4s1.5,3.4,3.4,3.4c1.9,0,3.4-1.5,3.4-3.4
			C121.7,129.8,120.2,128.3,118.4,128.3z"/>
	</g>
</g>
<g>
	<g>
		<path class="st0" d="M467.7,155.2L467.7,155.2c-1.9,0-3.4,1.5-3.4,3.4s1.5,3.4,3.4,3.4c1.9,0,3.4-1.5,3.4-3.4
			C471.1,156.7,469.6,155.2,467.7,155.2z"/>
	</g>
</g>
<g>
	<g>
		<path class="st0" d="M400.6,175.4L400.6,175.4c-1.9,0-3.4,1.5-3.4,3.4c0,1.9,1.5,3.4,3.4,3.4c1.8,0,3.4-1.5,3.4-3.4
			C403.9,176.9,402.4,175.4,400.6,175.4z"/>
	</g>
</g>
<g>
	<g>
		<path class="st0" d="M400.6,343.3L400.6,343.3c-1.9,0-3.4,1.5-3.4,3.4s1.5,3.4,3.4,3.4c1.8,0,3.4-1.5,3.4-3.4
			S402.4,343.3,400.6,343.3z"/>
	</g>
</g>
<g>
	<g>
		<path class="st0" d="M131.8,383.7L131.8,383.7c-1.9,0-3.4,1.5-3.4,3.4c0,1.9,1.5,3.4,3.4,3.4c1.9,0,3.4-1.5,3.4-3.4
			C135.2,385.2,133.7,383.7,131.8,383.7z"/>
	</g>
</g>
<g>
	<g>
		<path class="st0" d="M44.5,336.6L44.5,336.6c-1.9,0-3.4,1.5-3.4,3.4c0,1.9,1.5,3.4,3.4,3.4c1.9,0,3.4-1.5,3.4-3.4
			C47.8,338.1,46.3,336.6,44.5,336.6z"/>
	</g>
</g>
<g>
	<g>
		<path class="st0" d="M71.3,249.3L71.3,249.3c-1.9,0-3.4,1.5-3.4,3.4s1.5,3.4,3.4,3.4c1.9,0,3.4-1.5,3.4-3.4
			C74.7,250.8,73.2,249.3,71.3,249.3z"/>
	</g>
</g>
<g>
	<g>
		<path class="st0" d="M313.2,417.3L313.2,417.3c-1.9,0-3.4,1.5-3.4,3.4c0,1.9,1.5,3.4,3.4,3.4c1.9,0,3.4-1.5,3.4-3.4
			C316.6,418.8,315.1,417.3,313.2,417.3z"/>
	</g>
</g>
<g>
	<g>
		<path class="st0" d="M51,121.6c-1.9,0-3.4,1.5-3.4,3.4v26.9c0,1.9,1.5,3.4,3.4,3.4c1.9,0,3.4-1.5,3.4-3.4V125
			C54.3,123.1,52.8,121.6,51,121.6z"/>
	</g>
</g>
<g>
	<g>
		<path class="st0" d="M57.7,135.1H44.3c-1.9,0-3.4,1.5-3.4,3.4s1.5,3.4,3.4,3.4h13.4c1.9,0,3.4-1.5,3.4-3.4S59.6,135.1,57.7,135.1z
			"/>
	</g>
</g>
<g>
	<g>
		<path class="st0" d="M91.3,437.4c-1.9,0-3.4,1.5-3.4,3.4v26.9c0,1.9,1.5,3.4,3.4,3.4s3.4-1.5,3.4-3.4v-26.9
			C94.6,438.9,93.1,437.4,91.3,437.4z"/>
	</g>
</g>
<g>
	<g>
		<path class="st0" d="M98,450.8H84.6c-1.9,0-3.4,1.5-3.4,3.4s1.5,3.4,3.4,3.4H98c1.9,0,3.4-1.5,3.4-3.4S99.9,450.8,98,450.8z"/>
	</g>
</g>
<g>
	<g>
		<path class="st0" d="M243.6,132.3c-0.2-1.8-2-3.1-3.8-2.9c-63.7,8-111.6,62.4-111.6,126.7c0,46.1,25,88.7,65.1,111.3
			c0.5,0.3,1.1,0.4,1.6,0.4c1.2,0,2.3-0.6,2.9-1.7c0.9-1.6,0.3-3.7-1.3-4.6C158.6,340.1,135,299.6,135,256
			c0-60.9,45.5-112.5,105.8-120C242.6,135.8,243.9,134.1,243.6,132.3z"/>
	</g>
</g>
<g>
	<g>
		<path class="st0" d="M268.8,129c-1.7-0.1-3.5,1.2-3.7,3c-0.2,1.8,1.2,3.5,3,3.7c61.9,6.2,108.7,58,108.7,120.3
			c0,66.7-54.2,120.9-120.9,120.9c-11.5,0-22.9-1.6-33.9-4.8c-1.8-0.5-3.6,0.5-4.2,2.3c-0.5,1.8,0.5,3.6,2.3,4.2
			c11.6,3.4,23.6,5.1,35.8,5.1c70.4,0,127.7-57.3,127.7-127.7C383.6,190.2,334.2,135.6,268.8,129z"/>
	</g>
</g>
<g>
	<g>
		<path class="st0" d="M296.5,48.4c-24.6-4.9-57.9,117.6-74.2,201.1c-16.3,83.5-31.6,209.4-7,214.2c0.5,0.1,1.2,0.2,2,0.2
			c5.6,0,17.9-6.1,38.7-69.1c0.6-1.8-0.4-3.7-2.1-4.2c-1.8-0.6-3.7,0.4-4.2,2.1c-17.4,52.6-29.1,65.2-33.1,64.4
			c-7.9-1.5-15.7-63.1,12.3-206.3C256.9,107.5,287,53.3,295.2,55c3.8,0.7,10,16.8,6.4,72.1c-0.1,1.9,1.3,3.5,3.1,3.6
			c1.9,0.1,3.5-1.3,3.6-3.1C313.3,51.6,300.6,49.2,296.5,48.4z"/>
	</g>
</g>
<g>
	<g>
		<path class="st0" d="M435.4,401.4c-1.6-2.2-3.9-3.6-6.6-4.1c-5.6-0.9-10.7,2.9-11.6,8.3c-0.9,5.5,2.8,10.7,8.3,11.6
			c0.6,0.1,1.1,0.1,1.6,0.1c5,0,9.1-3.6,9.9-8.5C437.6,406.3,437,403.6,435.4,401.4z M430.5,407.9c-0.3,1.6-1.7,2.8-3.3,2.8
			l-0.6-0.1c-1.8-0.3-3.1-2-2.8-3.8c0.3-1.6,1.6-2.8,3.7-2.8c0,0,0.1,0,0.1,0c0.9,0.1,1.7,0.6,2.2,1.4
			C430.5,406.1,430.7,407,430.5,407.9z"/>
	</g>
</g>
<g>
	<g>
		<path class="st0" d="M423.7,408.8c-1.7-0.7-3.7,0.1-4.4,1.7c-0.1,0.2-8.7,19.1-39.1,26.8c-1.8,0.5-2.9,2.3-2.4,4.1
			c0.4,1.5,1.8,2.5,3.3,2.5c0.3,0,0.6,0,0.8-0.1c33.8-8.6,43.3-29.7,43.6-30.6C426.2,411.5,425.4,409.6,423.7,408.8z"/>
	</g>
</g>
<g>
	<g>
		<path class="st0" d="M413.8,54.4c-16.7,0-30.2,13.6-30.2,30.2s13.6,30.2,30.2,30.2c16.7,0,30.2-13.6,30.2-30.2
			C444,68,430.5,54.4,413.8,54.4z M413.8,108.2c-13,0-23.5-10.6-23.5-23.5s10.6-23.5,23.5-23.5c13,0,23.5,10.6,23.5,23.5
			C437.3,97.6,426.7,108.2,413.8,108.2z"/>
	</g>
</g>
<g>
	<g>
		<path class="st0" d="M400.3,67.9h-9.8c-1.9,0-3.4,1.5-3.4,3.4s1.5,3.4,3.4,3.4h9.8c1.9,0,3.4-1.5,3.4-3.4
			C403.7,69.4,402.2,67.9,400.3,67.9z"/>
	</g>
</g>
<g>
	<g>
		<path class="st0" d="M437,94.7h-9.8c-1.9,0-3.4,1.5-3.4,3.4c0,1.9,1.5,3.4,3.4,3.4h9.8c1.9,0,3.4-1.5,3.4-3.4
			C440.4,96.3,438.9,94.7,437,94.7z"/>
	</g>
</g>
<g>
	<g>
		<path class="st0" d="M410.4,74.6c-7.5,0-13.4,4.4-13.4,10.1c0,5.7,5.9,10.1,13.4,10.1s13.4-4.4,13.4-10.1S418,74.6,410.4,74.6z
			 M410.4,88c-4.1,0-6.7-2-6.7-3.4c0-1.4,2.6-3.4,6.7-3.4c4.1,0,6.7,2,6.7,3.4C417.1,86,414.5,88,410.4,88z"/>
	</g>
</g>
</svg>
