<?xml version="1.0" encoding="utf-8"?>
<!-- Generator: Adobe Illustrator 21.1.0, SVG Export Plug-In . SVG Version: 6.00 Build 0)  -->
<svg version="1.1" id="Layer_1" xmlns="http://www.w3.org/2000/svg" xmlns:xlink="http://www.w3.org/1999/xlink" x="0px" y="0px"
	 viewBox="0 0 512 512" style="enable-background:new 0 0 512 512;" xml:space="preserve">
<style type="text/css">
	.st0{fill:#BA9389;}
</style>
<g>
	<g>
		<path class="st0" d="M362.5,117.5h-65.8l-13.2-19.4h-55.1l-13.2,19.4h-65.8c-13,0-23.5,10.5-23.5,23.5v178.6
			c0,13,10.5,23.5,23.5,23.5v-9.4c-7.8,0-14.1-6.3-14.1-14.1v-110h48.9c-1.2,5.3-1.9,10.9-1.9,16.6c0,40.6,33,73.6,73.6,73.6
			s73.6-33,73.6-73.6c0-5.7-0.7-11.3-1.9-16.6h48.9v110c0,7.8-6.3,14.1-14.1,14.1v9.4c13,0,23.5-10.5,23.5-23.5V141
			C386,128.1,375.5,117.5,362.5,117.5z M256,290.5c-35.4,0-64.2-28.8-64.2-64.2S220.6,162,256,162s64.2,28.8,64.2,64.2
			S291.4,290.5,256,290.5z M376.6,200.2h-51.7c-10.5-27.8-37.4-47.6-68.9-47.6s-58.3,19.8-68.9,47.6h-51.7V141
			c0-7.8,6.3-14.1,14.1-14.1h70.8l13.2-19.4h45.1l13.2,19.4h70.8c7.8,0,14.1,6.3,14.1,14.1L376.6,200.2L376.6,200.2z"/>
	</g>
</g>
<g>
	<g>
		<rect x="152.3" y="309.3" class="st0" width="207.4" height="9.4"/>
	</g>
</g>
<g>
	<g>
		<polygon class="st0" points="339,325.2 339,404.5 173,404.5 173,325.2 163.6,325.2 163.6,413.9 348.4,413.9 348.4,325.2 		"/>
	</g>
</g>
<g>
	<g>
		<path class="st0" d="M145.4,138.2v28.2h56.4v-28.2H145.4z M192.4,157h-37.6v-9.4h37.6L192.4,157L192.4,157z"/>
	</g>
</g>
<g>
	<g>
		<path class="st0" d="M357.2,139.2h-21.9c-6,0-11,4.9-11,11V172c0,6,4.9,11,11,11h21.9c6,0,11-4.9,11-11v-21.9
			C368.1,144.1,363.2,139.2,357.2,139.2z M358.7,172c0,0.9-0.7,1.6-1.6,1.6h-21.9c-0.9,0-1.6-0.7-1.6-1.6v-21.9
			c0-0.9,0.7-1.6,1.6-1.6h21.9c0.9,0,1.6,0.7,1.6,1.6V172z"/>
	</g>
</g>
<g>
	<g>
		<rect x="153.3" y="102.5" class="st0" width="31.3" height="9.4"/>
	</g>
</g>
<g>
	<g>
		<path class="st0" d="M165.2,265.4c-7.8,0-14.1,6.3-14.1,14.1s6.3,14.1,14.1,14.1c7.8,0,14.1-6.3,14.1-14.1
			S172.9,265.4,165.2,265.4z M165.2,284.2c-2.6,0-4.7-2.1-4.7-4.7c0-2.6,2.1-4.7,4.7-4.7c2.6,0,4.7,2.1,4.7,4.7
			C169.9,282.1,167.7,284.2,165.2,284.2z"/>
	</g>
</g>
<g>
	<g>
		<path class="st0" d="M256,171.4c-30.2,0-54.8,24.6-54.8,54.8s24.6,54.8,54.8,54.8s54.8-24.6,54.8-54.8S286.2,171.4,256,171.4z
			 M256,271.7c-25,0-45.4-20.4-45.4-45.4s20.4-45.4,45.4-45.4s45.4,20.4,45.4,45.4S281,271.7,256,271.7z"/>
	</g>
</g>
<g>
	<g>
		<path class="st0" d="M263.8,114.4h-15.7c-7.9,0-14.4,6.5-14.4,14.4s6.5,14.4,14.4,14.4h15.7c7.9,0,14.4-6.5,14.4-14.4
			S271.8,114.4,263.8,114.4z M263.8,133.8h-15.7c-2.8,0-5-2.2-5-5c0-2.8,2.2-5,5-5h15.7c2.8,0,5,2.2,5,5
			C268.8,131.6,266.6,133.8,263.8,133.8z"/>
	</g>
</g>
<g>
	<g>
		<polygon class="st0" points="319,325.2 319,359.4 193,359.4 193,325.2 183.6,325.2 183.6,368.8 328.4,368.8 328.4,325.2 		"/>
	</g>
</g>
</svg>
